REM DIRINDEX 1\2,1\3
REM DIRNAME folder01,folder02,folder03
TITLE ""
FILE "Track26.mp3" MP3
  TRACK 01 AUDIO
    TITLE "0:"
    INDEX 01 00:00:00
  TRACK 02 AUDIO
    TITLE "3:cjc140_086"
    INDEX 01 00:00:05
  TRACK 03 AUDIO
    TITLE "2:cjc140_087"
    INDEX 01 00:02:10
  TRACK 04 AUDIO
    TITLE "2:cjc140_088"
    INDEX 01 00:16:16
  TRACK 05 AUDIO
    TITLE "0:"
    INDEX 01 00:25:17
